<svg width="48" height="48" viewBox="0 0 48 48" fill="none" xmlns="http://www.w3.org/2000/svg">
<rect width="48" height="48" rx="24" fill="#1C1C1C"/>
<path d="M24 16C25.0609 16 26.0783 16.4214 26.8284 17.1716C27.5786 17.9217 28 18.9391 28 20C28 21.0609 27.5786 22.0783 26.8284 22.8284C26.0783 23.5786 25.0609 24 24 24C22.9391 24 21.9217 23.5786 21.1716 22.8284C20.4214 22.0783 20 21.0609 20 20C20 18.9391 20.4214 17.9217 21.1716 17.1716C21.9217 16.4214 22.9391 16 24 16ZM24 32C24 32 32 32 32 30C32 27.6 28.1 25 24 25C19.9 25 16 27.6 16 30C16 32 24 32 24 32Z" fill="#DBD9D9"/>
</svg>
