<svg width="25" height="24" viewBox="0 0 25 24" fill="none" xmlns="http://www.w3.org/2000/svg">
<path fill-rule="evenodd" clip-rule="evenodd" d="M20.3886 11.1033C19.683 7.16245 18.1054 6.00003 17.2662 6.00003C15.9565 6.00003 15.6205 6.97365 12.8333 7.00645C10.046 6.97365 9.71004 6.00003 8.40041 6.00003C7.5612 6.00003 5.98277 7.16245 5.27716 11.1033C4.87475 13.353 4.43794 16.7114 5.47876 17.1146C6.77398 17.6162 7.21319 16.3618 8.63562 15.3018C10.0796 14.2274 10.7725 13.9746 12.8333 13.9746C14.8941 13.9746 15.5869 14.2274 17.031 15.3018C18.4534 16.361 18.8926 17.6162 20.1878 17.1146C21.2286 16.7114 20.7918 13.3538 20.3886 11.1033ZM9.63323 11.6145C9.20888 11.6145 8.80191 11.446 8.50184 11.1459C8.20178 10.8458 8.03321 10.4389 8.03321 10.0145C8.03321 9.59015 8.20178 9.18317 8.50184 8.88311C8.80191 8.58305 9.20888 8.41447 9.63323 8.41447C10.0576 8.41447 10.4646 8.58305 10.7646 8.88311C11.0647 9.18317 11.2333 9.59015 11.2333 10.0145C11.2333 10.4389 11.0647 10.8458 10.7646 11.1459C10.4646 11.446 10.0576 11.6145 9.63323 11.6145ZM15.2333 11.6145C15.0212 11.6145 14.8177 11.5302 14.6676 11.3802C14.5176 11.2302 14.4333 11.0267 14.4333 10.8145C14.4333 10.6023 14.5176 10.3989 14.6676 10.2488C14.8177 10.0988 15.0212 10.0145 15.2333 10.0145C15.4455 10.0145 15.649 10.0988 15.799 10.2488C15.9491 10.3989 16.0333 10.6023 16.0333 10.8145C16.0333 11.0267 15.9491 11.2302 15.799 11.3802C15.649 11.5302 15.4455 11.6145 15.2333 11.6145ZM16.8334 10.0145C16.6212 10.0145 16.4177 9.93021 16.2677 9.78018C16.1176 9.63015 16.0333 9.42666 16.0333 9.21449C16.0333 9.00231 16.1176 8.79882 16.2677 8.64879C16.4177 8.49876 16.6212 8.41447 16.8334 8.41447C17.0455 8.41447 17.249 8.49876 17.3991 8.64879C17.5491 8.79882 17.6334 9.00231 17.6334 9.21449C17.6334 9.42666 17.5491 9.63015 17.3991 9.78018C17.249 9.93021 17.0455 10.0145 16.8334 10.0145Z" fill="#2E2E2E"/>
</svg>
