<svg width="24" height="24" viewBox="0 0 24 24" fill="none" xmlns="http://www.w3.org/2000/svg">
<path d="M11.1122 11.6876L15.0122 15.5876C15.1955 15.7709 15.2872 16.0042 15.2872 16.2876C15.2872 16.5709 15.1955 16.8042 15.0122 16.9876C14.8288 17.1709 14.5955 17.2626 14.3122 17.2626C14.0288 17.2626 13.7955 17.1709 13.6122 16.9876L9.01216 12.3876C8.81216 12.1876 8.71216 11.9542 8.71216 11.6876C8.71216 11.4209 8.81216 11.1876 9.01216 10.9876L13.6122 6.38757C13.7955 6.20424 14.0288 6.11257 14.3122 6.11257C14.5955 6.11257 14.8288 6.20424 15.0122 6.38757C15.1955 6.57091 15.2872 6.80424 15.2872 7.08757C15.2872 7.37091 15.1955 7.60424 15.0122 7.78757L11.1122 11.6876Z" fill="#DBD9D9"/>
</svg>
