<svg width="24" height="24" viewBox="0 0 24 24" fill="none" xmlns="http://www.w3.org/2000/svg">
<path d="M12.0005 17.4194C12.0005 17.2654 12.0617 17.1177 12.1706 17.0088C12.2794 16.8999 12.4271 16.8387 12.5811 16.8387H17.2263C17.2776 16.8387 17.3269 16.8183 17.3632 16.782C17.3995 16.7457 17.4198 16.6965 17.4198 16.6452V7.35484C17.4198 7.30351 17.3995 7.25428 17.3632 7.21798C17.3269 7.18168 17.2776 7.16129 17.2263 7.16129H12.5811C12.4271 7.16129 12.2794 7.10012 12.1706 6.99122C12.0617 6.88233 12.0005 6.73464 12.0005 6.58065C12.0005 6.42665 12.0617 6.27896 12.1706 6.17007C12.2794 6.06117 12.4271 6 12.5811 6H17.2263C17.9742 6 18.5811 6.60697 18.5811 7.35484V16.6452C18.5811 17.0045 18.4384 17.3491 18.1843 17.6032C17.9302 17.8573 17.5856 18 17.2263 18H12.5811C12.4271 18 12.2794 17.9388 12.1706 17.8299C12.0617 17.721 12.0005 17.5734 12.0005 17.4194Z" fill="#E5E4E4"/>
<path d="M15.3775 12.8632C15.3775 13.0686 15.2959 13.2655 15.1507 13.4107C15.0055 13.5559 14.8086 13.6374 14.6033 13.6374H10.8438C10.826 13.913 10.8035 14.1871 10.7772 14.4627L10.754 14.6989C10.7453 14.7878 10.7154 14.8734 10.6666 14.9484C10.6178 15.0233 10.5517 15.0854 10.4738 15.1293C10.3959 15.1732 10.3086 15.1977 10.2192 15.2006C10.1298 15.2036 10.0411 15.185 9.96045 15.1463C8.5452 14.4681 7.26402 13.5399 6.17851 12.4065L6.15529 12.3825C6.05564 12.2785 6 12.1401 6 11.9961C6 11.8522 6.05564 11.7137 6.15529 11.6098L6.17851 11.5858C7.26401 10.4524 8.5452 9.52421 9.96045 8.84595C10.0411 8.8073 10.1298 8.78867 10.2192 8.79164C10.3086 8.79461 10.3959 8.81909 10.4738 8.86301C10.5517 8.90693 10.6178 8.96899 10.6666 9.04392C10.7154 9.11885 10.7453 9.20444 10.754 9.29343L10.7772 9.52956C10.8035 9.8044 10.826 10.0792 10.8438 10.3549H14.6033C14.8086 10.3549 15.0055 10.4364 15.1507 10.5816C15.2959 10.7268 15.3775 10.9237 15.3775 11.129V12.8632Z" fill="#E5E4E4"/>
</svg>
