<svg width="40" height="40" viewBox="0 0 40 40" fill="none" xmlns="http://www.w3.org/2000/svg">
<rect width="40" height="40" rx="20" fill="#1C1C1C"/>
<path d="M13.7974 21.6677L16.3169 24.1871C16.1526 24.3573 15.9559 24.4931 15.7386 24.5864C15.5212 24.6798 15.2874 24.729 15.0508 24.731C14.8142 24.7331 14.5796 24.688 14.3606 24.5984C14.1416 24.5088 13.9427 24.3765 13.7754 24.2092C13.6081 24.0419 13.4758 23.843 13.3862 23.624C13.2966 23.405 13.2515 23.1704 13.2535 22.9338C13.2556 22.6972 13.3048 22.4634 13.3981 22.246C13.4915 22.0286 13.6273 21.832 13.7974 21.6677ZM21.6971 26.4117L21.0681 27.0407L11 16.9726L11.629 16.3436L12.6108 16.4835C13.2825 16.5797 14.1155 16.3748 14.4612 16.0291L17.9223 12.5689C18.9268 11.5833 20.2798 11.0341 21.687 11.0408C23.0943 11.0475 24.442 11.6094 25.4371 12.6045C26.4322 13.5996 26.9942 14.9473 27.0008 16.3546C27.0075 17.7618 26.4583 19.1148 25.4727 20.1193L22.0116 23.5804C21.6659 23.9261 21.461 24.7591 21.5572 25.4308L21.6971 26.4117Z" fill="#DBD9D9"/>
</svg>
