<svg width="24" height="24" viewBox="0 0 24 24" fill="none" xmlns="http://www.w3.org/2000/svg">
<path d="M7.42891 6.23469C7.57911 6.08453 7.78281 6.00017 7.9952 6.00017C8.20759 6.00017 8.41129 6.08453 8.5615 6.23469L11.7654 9.43863C11.9113 9.58969 11.9921 9.79202 11.9902 10.002C11.9884 10.2121 11.9042 10.413 11.7557 10.5615C11.6072 10.71 11.4063 10.7942 11.1963 10.796C10.9862 10.7979 10.7839 10.7171 10.6328 10.5712L8.79619 8.73456V18.0148C8.79619 18.2272 8.7118 18.4309 8.56158 18.5811C8.41137 18.7314 8.20763 18.8157 7.9952 18.8157C7.78277 18.8157 7.57903 18.7314 7.42882 18.5811C7.27861 18.4309 7.19422 18.2272 7.19422 18.0148V8.73456L5.35756 10.5712C5.20649 10.7171 5.00416 10.7979 4.79415 10.796C4.58413 10.7942 4.38323 10.71 4.23472 10.5615C4.08622 10.413 4.00198 10.2121 4.00015 10.002C3.99833 9.79202 4.07906 9.58969 4.22497 9.43863L7.42891 6.23469ZM15.2041 16.0812V6.80098C15.2041 6.58855 15.2884 6.38482 15.4387 6.2346C15.5889 6.08439 15.7926 6 16.005 6C16.2175 6 16.4212 6.08439 16.5714 6.2346C16.7216 6.38482 16.806 6.58855 16.806 6.80098V16.0812L18.6427 14.2445C18.7938 14.0986 18.9961 14.0179 19.2061 14.0197C19.4161 14.0215 19.617 14.1058 19.7655 14.2543C19.914 14.4028 19.9983 14.6037 20.0001 14.8137C20.0019 15.0237 19.9212 15.2261 19.7753 15.3771L16.5713 18.5811C16.4211 18.7312 16.2174 18.8156 16.005 18.8156C15.7927 18.8156 15.589 18.7312 15.4387 18.5811L12.2348 15.3771C12.0889 15.2261 12.0082 15.0237 12.01 14.8137C12.0118 14.6037 12.0961 14.4028 12.2446 14.2543C12.3931 14.1058 12.594 14.0215 12.804 14.0197C13.014 14.0179 13.2163 14.0986 13.3674 14.2445L15.2041 16.0812Z" fill="#DBD9D9"/>
</svg>
